<svg width="908" height="165" viewBox="0 0 908 165" fill="none" xmlns="http://www.w3.org/2000/svg">
<path d="M49.1426 132.109C79.6406 132.109 98.7129 116.816 98.7129 92.5586C98.7129 73.75 87.4629 63.0273 60.7441 57.4902L47.1211 54.6777C31.3008 51.3379 24.9727 45.8008 24.9727 37.1875C24.9727 26.5527 34.9922 19.873 49.0547 19.873C60.9199 19.873 69.9727 24.4434 74.2793 35.166C76.6523 40.0879 79.9043 42.373 85.1777 42.373C91.0664 42.373 95.0215 38.5938 95.0215 33.0566C95.0215 30.9473 94.7578 29.2773 94.2305 27.8711C89.0449 11.084 71.6426 1.06445 49.2305 1.06445C21.7207 1.06445 2.12109 16.1816 2.12109 38.5059C2.12109 57.0508 13.9863 69.0039 39.3867 74.1895L53.0098 77.002C69.5332 80.4297 75.8613 86.0547 75.8613 95.1953C75.8613 105.742 65.1387 113.301 49.8457 113.301C36.3105 113.301 25.4121 108.379 21.457 97.3926C18.9961 92.2949 15.832 90.2734 10.8223 90.2734C4.8457 90.2734 0.802734 94.3164 0.802734 100.645C0.802734 102.754 1.24219 105.039 2.0332 107.148C6.95508 121.562 23.8301 132.109 49.1426 132.109ZM143.01 131.758C150.568 131.758 155.051 128.154 156.896 120.508L172.893 61.8848H173.332L189.328 120.42C191.35 128.418 195.568 131.758 203.391 131.758C210.773 131.758 215.08 128.154 217.277 120.508L237.404 50.7227C238.195 48.0859 238.547 46.2402 238.547 44.3066C238.547 38.7695 234.328 34.9902 228.088 34.9902C222.727 34.9902 219.387 38.0664 218.068 44.1309L202.6 108.379H202.072L185.725 45.0098C184.23 38.418 180.012 34.9902 173.42 34.9902C166.74 34.9902 162.434 38.5059 160.939 45.0098L144.68 108.379H144.24L128.771 44.2188C127.453 38.1543 124.025 34.9902 118.576 34.9902C112.336 34.9902 108.029 38.8574 108.029 44.3945C108.029 46.3281 108.381 48.1738 109.084 50.8984L129.299 120.508C131.584 128.33 135.627 131.758 143.01 131.758ZM262.277 23.7402C269.133 23.7402 274.494 18.4668 274.494 11.875C274.494 5.19531 269.133 0.00976562 262.277 0.00976562C255.51 0.00976562 250.148 5.19531 250.148 11.875C250.148 18.4668 255.51 23.7402 262.277 23.7402ZM262.277 131.758C268.957 131.758 273.264 127.363 273.264 120.244V46.5918C273.264 39.4727 268.957 34.9902 262.277 34.9902C255.598 34.9902 251.379 39.4727 251.379 46.5039V120.244C251.379 127.363 255.598 131.758 262.277 131.758ZM308.684 131.758C315.188 131.758 319.582 127.715 319.582 120.332V53.7109H331.008C335.842 53.7109 339.357 50.7227 339.357 45.3613C339.357 40.2637 335.842 37.0996 331.008 37.0996H319.23V29.8047C319.23 21.9824 322.482 18.4668 330.48 18.291C332.414 18.2031 333.908 18.0273 335.314 17.6758C338.566 16.709 340.148 14.6875 340.148 11.3477C340.148 5.89844 334.963 2.20703 323.361 2.20703C306.574 2.29492 297.697 10.6445 297.697 28.8379V37.0996H291.896C286.975 37.0996 283.459 40.2637 283.459 45.3613C283.459 50.7227 286.975 53.7109 291.896 53.7109H297.697V120.332C297.697 127.715 302.092 131.758 308.684 131.758ZM358.342 106.973C358.342 122.881 366.604 130.967 382.863 130.967H383.742C393.762 130.967 399.387 127.539 399.387 121.123C399.387 116.025 396.398 113.564 390.598 113.037L389.016 112.861C382.688 112.334 380.227 109.258 380.227 102.227V53.7109H390.334C395.783 53.7109 399.123 50.459 399.123 45.1855C399.123 40 395.783 36.8359 390.334 36.8359H380.227V24.4434C380.227 17.4121 376.008 13.0176 369.328 13.0176C362.561 13.0176 358.342 17.4121 358.342 24.4434V36.8359H352.453C347.004 36.8359 343.664 40 343.664 45.1855C343.664 50.459 347.004 53.7109 352.453 53.7109H358.342V106.973ZM426.105 164.629C444.738 164.629 454.406 156.543 462.844 133.34L493.518 51.25C494.309 49.1406 494.748 46.6797 494.748 44.9219C494.748 39.1211 490.354 34.9902 484.113 34.9902C478.576 34.9902 475.412 37.5391 473.566 43.5156L451.33 111.367H450.979L428.742 43.6035C426.896 37.4512 423.82 34.9902 418.283 34.9902C411.867 34.9902 407.033 39.209 407.033 45.1855C407.033 46.9434 407.473 49.2285 408.264 51.4258L438.762 131.67L437.18 136.24C433.928 144.414 428.83 146.963 423.908 146.963C421.887 146.963 421.008 146.875 419.162 146.875C414.064 146.875 410.9 149.775 410.9 154.258C410.9 160.938 416.262 164.629 426.105 164.629ZM510.92 131.318C512.238 131.318 513.117 130.439 513.117 128.945V10.5566H513.469L598.547 130.176C599.162 131.055 599.777 131.318 600.568 131.318C601.799 131.318 602.502 130.615 602.502 129.297V4.22852C602.502 2.73438 601.623 1.85547 600.305 1.85547C598.986 1.85547 598.107 2.73438 598.107 4.22852V121.65H597.756L513.732 3.4375C513.029 2.38281 512.326 1.85547 511.184 1.85547C509.689 1.85547 508.723 2.82227 508.723 4.4043V128.945C508.723 130.439 509.602 131.318 510.92 131.318ZM659.279 131.318C683.625 131.318 699.621 112.773 699.621 84.2969C699.621 55.8203 683.625 37.2754 659.279 37.2754C634.934 37.2754 619.025 55.8203 619.025 84.2969C619.025 112.773 634.934 131.318 659.279 131.318ZM659.279 127.363C637.57 127.363 623.42 110.488 623.42 84.2969C623.42 58.1055 637.57 41.2305 659.279 41.2305C681.076 41.2305 695.314 58.1934 695.314 84.2969C695.314 110.4 681.076 127.363 659.279 127.363ZM720.539 110.225C720.539 124.375 726.076 130.088 738.293 130.088H743.391C745.061 130.088 745.852 129.209 745.852 127.979C745.852 126.748 745.061 126.045 743.654 126.045H738.557C728.977 125.957 724.846 121.562 724.846 109.961V42.5488H741.984C743.391 42.5488 744.182 41.7578 744.182 40.6152C744.182 39.2969 743.391 38.5938 741.984 38.5938H724.846V15.4785C724.846 13.9844 723.967 13.1055 722.648 13.1055C721.418 13.1055 720.539 13.9844 720.539 15.4785V38.5938H708.234C706.828 38.5938 706.037 39.2969 706.037 40.6152C706.037 41.7578 706.828 42.5488 708.234 42.5488H720.539V110.225ZM792.258 131.318C810.1 131.318 824.162 122.002 828.029 107.588C828.205 107.148 828.381 106.182 828.381 105.742C828.381 104.512 827.502 103.809 826.359 103.809C825.217 103.809 824.689 104.512 824.426 105.391C820.91 118.926 808.43 127.363 791.994 127.363C770.021 127.363 755.783 111.807 755.783 84.5605H826.271C828.732 84.5605 830.051 83.3301 830.051 81.0449C830.051 55.0293 814.406 37.2754 791.027 37.2754C767.209 37.2754 751.389 55.6445 751.389 84.8242C751.389 114.004 767.297 131.318 792.258 131.318ZM755.871 80.6055C756.838 56.875 770.725 41.2305 791.115 41.2305C811.77 41.2305 825.656 57.2266 825.656 80.6055H755.871ZM875.227 131.318C894.387 131.318 907.834 121.035 907.834 106.27C907.834 93.7012 900.627 87.0215 882.434 82.8027L870.217 79.9902C854.309 76.2988 847.893 70.9375 847.893 61.2695C847.893 49.7559 858.879 41.1426 873.996 41.1426C890.168 41.1426 899.221 51.1621 901.945 62.8516C902.561 65.4004 903.088 66.0156 904.318 66.0156C905.549 66.0156 906.252 65.2246 906.252 63.8184C906.252 63.291 906.164 62.5 905.988 61.709C903.088 46.7676 891.223 37.2754 874.26 37.2754C856.154 37.2754 843.498 47.2949 843.498 61.4453C843.498 72.959 851.408 79.9023 868.986 83.9453L881.203 86.6699C897.199 90.3613 903.439 95.9863 903.439 106.533C903.439 118.75 891.486 127.451 875.402 127.451C860.197 127.451 848.684 119.541 845.168 106.709C844.553 104.336 844.113 103.457 842.707 103.457C841.389 103.457 840.686 104.336 840.686 105.566C840.686 106.094 840.773 106.709 840.949 107.236C843.85 121.65 857.473 131.318 875.227 131.318Z" fill="white"/>
</svg>
